<svg id="svg" version="1.1" xmlns="http://www.w3.org/2000/svg" xmlns:xlink="http://www.w3.org/1999/xlink" width="400" height="248.0575539568345" viewBox="0, 0, 400,248.0575539568345"><g id="svgg"><path id="path0" d="M310.546 58.823 C 299.724 60.751,294.688 65.791,294.693 74.690 C 294.698 83.996,298.899 88.097,314.268 93.798 C 326.272 98.251,329.425 101.809,326.485 107.584 C 322.898 114.627,304.824 114.678,295.565 107.671 C 294.860 107.137,294.173 106.700,294.040 106.700 C 293.727 106.700,293.712 115.130,294.023 115.948 C 294.675 117.662,304.191 119.920,312.159 120.251 C 330.059 120.993,340.164 114.200,339.640 101.777 C 339.248 92.492,334.543 88.063,318.238 81.634 C 308.707 77.876,305.981 75.544,306.246 71.377 C 306.513 67.190,310.014 65.278,317.790 65.070 C 324.289 64.897,330.396 66.387,334.487 69.145 C 335.976 70.148,335.980 70.139,335.980 65.763 L 335.980 61.799 335.298 61.450 C 330.286 58.881,317.713 57.547,310.546 58.823 M172.705 89.195 L 172.705 118.375 176.737 118.306 L 180.769 118.238 180.893 97.146 L 181.017 76.055 185.978 83.127 C 188.707 87.016,191.499 91.004,192.182 91.988 C 200.020 103.275,208.508 115.231,209.303 116.105 C 211.179 118.165,211.947 118.357,218.300 118.360 L 223.821 118.362 223.821 89.206 L 223.821 60.050 219.727 60.050 L 215.633 60.050 215.633 81.162 C 215.633 94.024,215.543 102.242,215.403 102.192 C 215.276 102.146,209.123 93.455,201.730 82.878 C 186.458 61.031,187.104 61.896,185.326 60.911 L 183.995 60.174 178.350 60.095 L 172.705 60.016 172.705 89.195 M235.337 60.392 C 234.963 61.367,235.414 101.627,235.822 103.669 C 237.996 114.554,246.650 120.347,260.735 120.347 C 275.283 120.347,283.774 114.735,286.066 103.606 C 286.429 101.845,286.476 99.201,286.476 80.893 L 286.476 60.174 280.397 60.174 L 274.318 60.174 274.191 81.390 C 274.049 105.274,274.167 103.806,272.091 107.320 C 267.415 115.234,253.384 114.824,249.410 106.657 C 247.715 103.174,247.792 104.290,247.649 81.141 L 247.519 60.174 241.495 60.107 C 236.486 60.052,235.449 60.100,235.337 60.392 M60.367 93.238 C 60.463 130.496,60.310 127.535,62.535 135.360 C 69.435 159.635,86.828 178.925,107.852 185.620 L 109.625 186.185 111.946 185.375 C 124.944 180.838,138.085 170.554,145.514 159.105 C 150.964 150.707,154.750 142.228,156.951 133.489 C 158.781 126.226,158.658 129.010,158.746 92.866 L 158.826 60.298 109.554 60.298 L 60.282 60.298 60.367 93.238 M137.856 65.745 C 141.183 67.383,143.590 70.711,143.857 74.045 C 143.981 75.584,144.033 75.692,144.945 76.325 C 155.421 83.585,146.697 99.886,134.868 95.154 L 133.251 94.507 131.669 95.140 C 120.019 99.801,111.325 84.654,121.092 76.711 C 122.433 75.620,122.460 75.573,122.625 73.994 C 123.363 66.985,131.462 62.598,137.856 65.745 M83.912 66.850 C 84.914 67.041,86.388 67.419,87.188 67.689 L 88.643 68.180 90.537 67.602 C 94.726 66.322,100.724 66.149,106.141 67.152 L 106.948 67.301 106.948 80.083 L 106.948 92.866 106.249 92.726 C 101.589 91.794,95.052 91.874,91.203 92.909 L 88.734 93.573 86.116 92.891 C 82.182 91.867,75.818 91.797,71.170 92.726 L 70.471 92.866 70.471 80.056 C 70.471 73.010,70.555 67.238,70.658 67.229 C 70.760 67.220,72.016 67.065,73.449 66.885 C 76.979 66.441,81.691 66.425,83.912 66.850 M131.984 68.961 C 129.954 69.369,128.023 71.001,127.179 73.020 C 126.647 74.293,126.691 74.441,127.605 74.448 C 128.717 74.456,130.397 74.852,131.953 75.471 L 133.261 75.992 134.559 75.450 C 135.272 75.151,136.722 74.780,137.780 74.624 C 139.909 74.310,139.879 74.363,139.008 72.481 C 137.883 70.050,134.642 68.426,131.984 68.961 M77.419 70.714 C 75.353 70.983,74.938 71.169,74.938 71.826 C 74.938 72.573,75.290 72.689,76.802 72.441 C 79.117 72.061,82.044 72.173,83.536 72.697 C 85.053 73.230,85.856 73.068,85.856 72.230 C 85.856 71.033,81.283 70.211,77.419 70.714 M94.913 70.714 C 92.196 71.320,91.168 72.117,92.165 72.846 C 92.489 73.082,92.882 73.048,94.075 72.676 C 95.666 72.181,98.630 72.074,100.812 72.433 C 102.918 72.779,103.527 71.367,101.465 70.919 C 100.035 70.608,95.960 70.480,94.913 70.714 M76.352 74.681 C 74.545 75.031,74.301 76.342,76.060 76.252 C 80.622 76.019,82.071 76.073,83.571 76.531 C 85.000 76.968,85.167 76.975,85.528 76.613 C 87.002 75.139,80.766 73.827,76.352 74.681 M94.913 74.551 C 94.777 74.608,94.023 74.832,93.238 75.051 C 91.987 75.399,91.811 75.525,91.811 76.069 C 91.811 76.926,92.425 77.086,93.814 76.593 C 95.532 75.982,97.698 75.827,99.933 76.154 C 102.577 76.541,104.016 75.688,102.047 74.901 C 101.386 74.637,95.415 74.344,94.913 74.551 M77.191 78.417 C 75.098 78.709,74.938 78.785,74.938 79.494 C 74.938 80.283,75.413 80.435,76.959 80.142 C 78.865 79.781,81.301 79.845,83.282 80.308 C 85.289 80.777,85.929 80.661,85.811 79.849 C 85.646 78.700,80.865 77.906,77.191 78.417 M94.162 78.629 C 92.072 79.144,91.811 79.287,91.811 79.923 C 91.811 80.663,92.472 80.771,94.186 80.314 C 95.839 79.874,98.582 79.798,100.620 80.136 C 102.018 80.368,102.730 80.124,102.730 79.412 C 102.730 78.862,102.450 78.755,100.124 78.422 C 97.712 78.077,96.193 78.130,94.162 78.629 M127.792 78.858 C 127.792 79.243,128.798 80.397,129.135 80.397 C 129.878 80.397,130.056 79.172,129.336 79.012 C 128.964 78.930,128.465 78.809,128.226 78.744 C 127.987 78.680,127.792 78.731,127.792 78.858 M138.089 78.782 C 137.953 78.828,137.537 78.932,137.166 79.014 C 136.547 79.150,136.514 79.215,136.771 79.780 C 137.141 80.591,137.568 80.560,138.197 79.676 C 138.884 78.711,138.862 78.524,138.089 78.782 M142.086 81.458 C 141.594 82.199,140.538 83.318,139.740 83.946 L 138.288 85.086 138.137 86.699 C 138.045 87.680,137.739 88.800,137.355 89.557 C 136.474 91.297,136.521 91.502,137.853 91.702 C 144.017 92.626,148.041 84.865,143.573 80.668 L 142.980 80.111 142.086 81.458 M122.652 80.955 C 119.876 83.985,120.874 89.159,124.605 91.082 C 127.016 92.325,130.914 91.807,129.534 90.427 C 129.086 89.979,128.288 87.277,128.288 86.207 C 128.288 85.207,128.206 85.085,126.861 84.064 C 126.076 83.468,125.043 82.403,124.566 81.698 C 123.585 80.249,123.374 80.167,122.652 80.955 M78.536 82.159 C 75.505 82.390,74.938 82.563,74.938 83.256 C 74.938 84.121,75.157 84.161,78.121 83.832 C 80.623 83.553,80.991 83.570,82.910 84.043 C 85.013 84.562,85.856 84.483,85.856 83.769 C 85.856 82.695,82.159 81.882,78.536 82.159 M93.362 82.636 C 92.042 83.069,91.811 83.232,91.811 83.729 C 91.811 84.581,92.322 84.655,94.453 84.110 C 96.609 83.558,97.696 83.515,99.990 83.887 C 101.910 84.198,102.730 84.046,102.730 83.379 C 102.730 82.164,96.347 81.658,93.362 82.636 M132.506 86.315 C 132.506 86.766,133.061 88.089,133.251 88.089 C 133.440 88.089,133.995 86.766,133.995 86.315 C 133.995 86.199,133.660 86.104,133.251 86.104 C 132.841 86.104,132.506 86.199,132.506 86.315 M156.276 110.105 C 156.367 124.000,155.984 127.747,153.699 135.294 C 146.858 157.888,132.195 174.346,111.848 182.269 L 109.427 183.211 107.257 182.399 C 97.288 178.669,86.345 171.027,79.870 163.275 C 71.737 153.537,65.431 139.896,63.121 127.037 C 62.718 124.796,62.259 100.074,62.604 99.176 C 62.689 98.952,73.740 98.896,109.460 98.939 L 156.203 98.994 156.276 110.105 M87.965 104.220 C 87.283 104.321,86.417 104.348,86.042 104.280 C 85.351 104.155,85.039 104.735,85.608 105.087 C 86.186 105.444,85.754 105.648,84.181 105.761 C 82.350 105.892,80.585 106.629,80.148 107.445 C 79.985 107.750,79.976 107.940,80.125 107.940 C 80.258 107.940,80.733 108.275,81.181 108.685 C 81.758 109.211,81.877 109.429,81.588 109.429 C 81.023 109.429,79.713 110.576,79.520 111.239 C 79.433 111.540,79.081 112.023,78.739 112.311 C 77.990 112.942,78.371 114.068,79.510 114.587 C 80.453 115.016,79.956 116.090,78.616 116.515 C 77.775 116.782,78.950 118.177,80.303 118.516 C 80.640 118.601,80.861 118.796,80.796 118.950 C 80.731 119.105,80.541 119.650,80.374 120.161 C 79.983 121.360,80.001 121.365,78.050 119.541 L 76.392 117.990 75.423 114.764 C 73.909 109.722,73.795 109.480,72.815 109.209 C 72.349 109.080,71.672 108.742,71.310 108.458 C 70.949 108.173,70.333 107.940,69.942 107.940 L 69.231 107.940 69.727 108.437 C 70.607 109.316,70.249 109.926,68.853 109.926 C 68.116 109.926,67.885 110.274,68.360 110.668 C 68.624 110.887,68.657 111.095,68.481 111.424 C 68.348 111.674,68.238 112.099,68.238 112.370 C 68.238 112.684,67.991 112.947,67.556 113.098 L 66.873 113.334 67.566 113.659 C 68.154 113.935,68.235 114.090,68.105 114.684 C 67.853 115.829,68.416 117.017,69.735 118.121 C 70.445 118.715,71.301 119.780,71.788 120.674 C 72.248 121.518,73.265 123.261,74.049 124.547 C 75.696 127.248,76.179 129.122,76.179 132.805 L 76.179 135.045 76.861 134.885 C 78.367 134.530,78.289 134.398,78.277 137.267 L 78.266 139.918 79.007 139.500 C 79.414 139.270,80.209 138.607,80.774 138.027 C 81.651 137.127,81.949 136.973,82.814 136.973 C 83.371 136.973,84.535 136.751,85.400 136.480 C 87.388 135.856,87.211 135.828,87.852 136.866 L 88.400 137.752 89.346 136.768 C 90.429 135.641,90.569 135.676,90.576 137.076 C 90.583 138.348,91.180 139.660,92.619 141.563 L 93.744 143.052 93.302 145.037 C 92.618 148.104,91.352 152.552,90.794 153.850 C 90.231 155.159,89.704 155.328,86.174 155.333 C 84.012 155.336,81.530 156.568,81.068 157.868 C 80.939 158.230,81.007 158.257,81.542 158.054 C 81.885 157.923,82.271 157.816,82.398 157.816 C 82.709 157.816,82.696 158.739,82.382 158.933 C 81.869 159.250,82.091 160.090,82.614 159.810 C 83.478 159.348,84.107 160.138,83.611 161.063 C 83.269 161.704,83.442 161.913,84.038 161.579 C 84.378 161.389,84.606 161.430,84.953 161.742 C 85.620 162.344,87.917 162.231,91.046 161.443 C 94.952 160.459,95.054 160.376,96.458 157.058 C 98.320 152.656,100.229 150.513,104.281 148.276 C 105.978 147.339,106.087 147.115,105.164 146.450 C 104.270 145.805,105.843 144.457,108.181 143.865 L 109.489 143.534 108.798 142.712 C 108.014 141.780,108.005 141.794,110.050 140.804 C 110.918 140.384,111.718 140.203,112.717 140.201 C 114.244 140.198,114.460 139.967,113.780 139.067 C 113.579 138.802,113.412 138.511,113.407 138.419 C 113.399 138.241,115.132 137.607,115.223 137.754 C 116.366 139.602,117.854 141.690,118.948 142.979 C 120.651 144.986,120.650 144.662,118.961 148.547 C 118.199 150.302,117.522 151.865,117.456 152.021 C 117.380 152.202,116.330 152.338,114.562 152.397 C 111.710 152.491,109.537 153.262,108.499 154.549 C 107.943 155.237,108.104 155.611,108.816 155.287 C 109.751 154.860,110.077 155.315,109.556 156.322 C 109.073 157.257,109.180 157.471,109.931 157.069 C 110.715 156.650,111.100 157.097,110.704 157.966 C 110.337 158.770,110.462 158.938,111.152 158.568 C 111.581 158.339,111.795 158.381,112.323 158.796 C 113.190 159.478,113.876 159.442,117.439 158.526 C 121.239 157.550,121.205 157.576,122.735 154.657 C 124.002 152.243,124.881 151.361,127.465 149.915 C 127.883 149.681,127.883 149.644,127.476 149.194 C 126.768 148.412,127.629 147.412,129.425 146.932 C 130.506 146.643,130.402 146.253,129.073 145.620 C 127.163 144.711,126.579 142.909,127.457 140.638 C 128.070 139.051,128.224 138.981,128.979 139.953 C 129.349 140.429,130.818 142.085,132.243 143.632 L 134.835 146.445 133.790 149.587 C 133.216 151.316,132.441 153.288,132.068 153.970 L 131.390 155.211 128.660 155.349 C 126.126 155.476,124.566 155.865,124.566 156.367 C 124.566 156.482,124.393 156.576,124.182 156.576 C 123.688 156.576,122.581 157.680,122.581 158.172 C 122.581 158.486,122.686 158.502,123.208 158.264 C 124.098 157.859,124.519 158.313,123.974 159.091 C 123.385 159.932,123.440 160.387,124.089 160.039 C 124.950 159.579,125.389 159.925,125.203 160.917 C 125.044 161.762,125.055 161.776,125.766 161.633 C 126.182 161.550,126.563 161.605,126.659 161.762 C 126.948 162.229,129.318 162.063,131.881 161.397 C 135.945 160.341,135.700 160.588,137.971 155.240 L 139.540 151.547 141.417 150.321 C 143.733 148.809,143.588 148.980,143.058 148.393 C 142.477 147.752,142.775 147.379,144.571 146.500 C 146.123 145.741,146.068 145.454,144.237 144.755 C 143.614 144.517,142.846 144.092,142.531 143.811 C 142.217 143.530,141.545 142.966,141.038 142.558 C 139.346 141.194,139.140 140.336,138.930 133.747 C 138.828 130.540,138.631 127.472,138.492 126.930 C 138.354 126.388,138.263 125.932,138.289 125.916 C 138.316 125.901,139.453 125.747,140.816 125.574 C 148.203 124.638,152.143 122.100,152.165 118.262 C 152.201 112.173,147.215 110.797,137.221 114.138 C 131.170 116.162,122.061 116.791,119.239 115.380 C 116.630 114.076,117.081 111.084,119.975 110.499 C 121.938 110.101,128.793 110.394,129.512 110.906 C 131.406 112.255,136.137 112.835,139.504 112.132 C 140.801 111.861,141.675 111.414,140.907 111.414 C 140.560 111.414,139.702 110.682,139.702 110.386 C 139.702 110.320,140.344 110.311,141.129 110.366 C 142.220 110.442,142.848 110.336,143.797 109.917 C 144.535 109.591,145.769 109.317,146.845 109.242 C 148.625 109.117,148.645 109.107,148.209 108.625 C 147.416 107.748,146.003 107.196,144.551 107.196 C 143.068 107.196,142.957 107.105,143.588 106.408 C 144.175 105.759,143.928 105.660,142.346 105.908 C 141.581 106.028,140.421 106.035,139.770 105.923 C 135.116 105.121,134.872 105.107,133.146 105.533 C 132.228 105.759,130.977 106.283,130.365 106.696 L 129.252 107.447 124.489 107.392 C 117.792 107.314,116.068 107.914,114.731 110.784 C 111.060 118.668,123.277 121.864,138.952 117.120 C 145.577 115.115,147.887 115.179,148.368 117.382 C 148.769 119.218,147.380 120.304,143.515 121.180 C 140.913 121.769,136.462 122.109,134.921 121.835 C 133.085 121.510,130.800 121.483,123.573 121.703 C 117.126 121.900,115.996 121.830,111.082 120.935 C 109.079 120.571,108.849 120.469,108.416 119.759 C 107.802 118.752,107.800 118.761,108.766 118.411 C 109.771 118.048,110.950 116.861,110.475 116.692 C 109.016 116.172,108.435 115.030,109.381 114.541 C 110.456 113.985,110.783 113.046,110.145 112.347 C 109.863 112.039,109.389 111.396,109.091 110.918 C 108.794 110.440,108.178 109.862,107.721 109.633 L 106.892 109.216 107.902 108.516 C 109.067 107.710,109.072 107.524,107.951 106.764 C 106.910 106.059,105.656 105.710,104.156 105.709 C 103.054 105.707,102.654 105.440,103.226 105.087 C 103.765 104.754,103.475 104.216,102.792 104.279 C 102.416 104.314,101.197 104.252,100.083 104.141 C 97.509 103.885,96.209 104.208,95.149 105.365 L 94.368 106.218 93.772 105.455 C 92.756 104.153,90.976 103.775,87.965 104.220 M129.440 108.738 C 130.062 109.360,129.805 109.397,124.194 109.484 C 117.913 109.581,116.650 110.214,116.632 113.275 C 116.605 117.629,126.869 118.408,137.841 114.885 C 146.044 112.251,150.064 112.708,151.121 116.392 C 152.414 120.903,149.037 123.494,140.261 124.723 C 136.850 125.200,136.985 125.069,137.609 127.295 C 137.868 128.219,138.053 130.504,138.181 134.367 C 138.344 139.307,138.437 140.225,138.872 141.191 C 139.338 142.227,141.157 144.169,141.662 144.169 C 142.269 144.169,142.139 145.101,141.353 146.383 C 140.210 148.247,138.743 151.208,137.375 154.410 C 135.770 158.167,135.076 159.466,134.565 159.666 C 133.805 159.964,128.585 161.290,128.172 161.290 C 127.882 161.290,127.821 161.135,127.934 160.684 C 128.159 159.787,127.909 159.554,126.998 159.816 C 126.055 160.086,125.929 160.003,126.282 159.344 C 126.697 158.569,126.373 158.039,125.594 158.222 C 125.055 158.349,124.993 158.318,125.248 158.047 C 125.419 157.866,125.558 157.472,125.558 157.173 C 125.558 156.440,125.927 156.337,129.132 156.173 C 130.645 156.096,131.954 155.990,132.040 155.937 C 132.531 155.634,134.681 150.263,135.358 147.648 L 135.746 146.154 132.699 142.793 C 131.024 140.945,128.789 138.181,127.734 136.652 C 124.743 132.316,124.564 132.093,123.413 131.266 C 122.167 130.371,121.762 130.666,122.439 131.975 C 122.653 132.390,122.829 132.784,122.829 132.850 C 122.829 133.014,116.636 134.908,110.546 136.606 C 109.454 136.910,107.581 137.460,106.384 137.827 L 104.208 138.495 104.354 140.029 L 104.499 141.563 102.414 145.037 C 101.268 146.948,99.266 150.262,97.966 152.401 C 96.665 154.540,95.475 156.795,95.319 157.412 C 94.842 159.309,94.304 159.689,90.895 160.537 C 87.032 161.499,86.034 161.531,86.247 160.684 C 86.468 159.802,86.218 159.555,85.356 159.802 L 84.615 160.015 84.771 159.040 C 84.922 158.098,84.903 158.065,84.225 158.065 C 83.680 158.065,83.590 157.998,83.821 157.767 C 83.985 157.603,84.119 157.265,84.119 157.016 C 84.119 156.320,85.135 156.079,88.072 156.079 L 90.751 156.079 91.383 154.653 C 92.223 152.754,93.096 149.891,93.913 146.355 C 94.530 143.683,94.680 143.333,95.812 141.922 C 97.465 139.862,98.045 138.650,98.201 136.929 C 98.357 135.211,98.289 135.236,99.407 136.474 C 100.471 137.652,100.582 137.608,101.513 135.640 C 102.136 134.323,102.233 133.828,102.233 131.948 C 102.233 129.553,102.221 129.575,103.174 130.261 C 104.632 131.312,105.211 131.218,105.211 129.930 C 105.211 129.045,105.487 128.257,106.441 126.424 C 107.117 125.123,107.865 123.441,108.103 122.685 C 108.507 121.405,108.580 121.322,109.169 121.472 C 113.595 122.595,119.054 122.965,125.493 122.576 C 128.997 122.365,131.492 122.334,132.938 122.482 C 141.940 123.405,149.382 121.385,149.379 118.019 C 149.376 114.620,145.824 113.948,139.173 116.087 C 132.192 118.333,122.141 119.111,118.600 117.680 C 113.980 115.813,113.866 110.262,118.416 108.644 C 120.258 107.989,128.763 108.061,129.440 108.738 M93.431 109.234 L 94.102 110.031 94.814 109.234 C 95.680 108.265,95.605 108.267,97.612 109.167 C 98.861 109.728,99.557 109.886,100.603 109.850 C 102.784 109.773,103.669 111.499,102.231 113.030 L 101.633 113.666 102.231 114.761 C 102.773 115.753,102.794 115.898,102.451 116.302 C 99.198 120.143,99.256 120.050,99.256 121.490 C 99.256 122.807,98.509 124.069,97.731 124.069 C 97.614 124.069,97.518 124.209,97.517 124.380 C 97.509 126.296,96.509 127.060,94.045 127.032 C 92.013 127.009,91.225 126.580,90.967 125.355 C 90.804 124.582,90.510 124.107,89.912 123.651 C 89.143 123.065,89.082 122.914,89.082 121.615 C 89.082 120.242,89.043 120.165,87.345 118.114 C 85.374 115.735,85.429 115.894,86.140 114.629 L 86.673 113.681 86.016 112.901 C 84.617 111.238,85.441 109.857,87.867 109.796 C 88.991 109.768,89.853 109.569,90.819 109.117 C 92.583 108.290,92.639 108.293,93.431 109.234 M73.053 110.484 C 73.251 110.791,73.585 111.712,73.796 112.531 C 75.170 117.871,75.842 119.027,79.071 121.612 C 80.987 123.146,83.623 127.978,83.623 129.958 C 83.623 131.223,84.215 131.303,85.689 130.239 C 86.588 129.591,86.537 129.471,86.638 132.483 L 86.725 135.066 85.001 135.647 C 82.095 136.627,82.265 136.765,78.540 130.397 C 74.841 124.072,73.829 122.370,73.080 121.216 C 72.636 120.533,72.200 119.737,72.109 119.445 C 72.019 119.154,71.278 118.299,70.464 117.546 C 68.847 116.052,68.586 115.290,69.603 115.035 C 70.000 114.935,70.223 114.704,70.223 114.393 C 70.223 114.126,69.944 113.724,69.603 113.501 C 68.613 112.852,68.768 112.096,69.848 112.299 C 70.785 112.475,71.318 111.914,70.753 111.348 C 70.243 110.838,70.444 110.422,71.201 110.422 C 71.603 110.422,72.000 110.310,72.084 110.174 C 72.330 109.776,72.666 109.884,73.053 110.484 M89.578 113.996 C 89.578 114.066,90.091 114.424,90.719 114.792 C 91.896 115.481,92.407 115.347,92.243 114.392 C 92.183 114.043,89.578 113.657,89.578 113.996 M95.782 116.873 L 95.782 119.851 93.797 119.851 C 91.541 119.851,91.443 119.956,92.813 120.903 C 94.607 122.144,93.899 124.069,91.650 124.069 C 91.118 124.069,91.033 124.135,91.267 124.369 C 91.500 124.602,91.825 124.596,92.743 124.340 C 94.116 123.957,94.065 123.957,95.602 124.350 C 96.509 124.581,96.855 124.584,97.078 124.361 C 97.301 124.138,97.210 124.069,96.687 124.069 C 94.263 124.069,93.719 121.956,95.858 120.844 C 97.033 120.233,97.050 120.208,96.918 119.231 C 96.845 118.685,96.713 117.659,96.626 116.952 L 96.467 115.666 97.733 114.967 C 99.386 114.055,99.336 113.896,97.395 113.896 L 95.782 113.896 95.782 116.873 M242.597 131.679 C 242.506 131.770,242.432 134.952,242.432 138.751 L 242.432 145.658 243.424 145.658 L 244.417 145.658 244.417 138.586 L 244.417 131.514 243.590 131.514 C 243.135 131.514,242.688 131.588,242.597 131.679 M203.825 132.349 C 203.449 133.328,203.810 133.871,204.839 133.871 C 205.808 133.871,205.831 133.850,205.831 133.002 C 205.831 132.033,204.155 131.488,203.825 132.349 M277.419 133.002 L 277.419 133.995 278.412 133.995 L 279.404 133.995 279.404 133.002 L 279.404 132.010 278.412 132.010 L 277.419 132.010 277.419 133.002 M316.970 132.364 C 316.600 133.329,316.969 133.869,318.052 133.947 L 319.107 134.024 319.107 133.017 L 319.107 132.010 318.106 132.010 C 317.469 132.010,317.057 132.138,316.970 132.364 M172.705 139.069 L 172.705 145.658 173.573 145.658 L 174.442 145.658 174.442 140.571 C 174.442 137.773,174.527 135.484,174.631 135.484 C 174.735 135.484,175.377 136.510,176.058 137.765 C 177.537 140.491,178.234 141.754,179.493 143.983 L 180.440 145.658 181.663 145.658 L 182.887 145.658 182.820 139.144 L 182.754 132.630 181.886 132.630 L 181.017 132.630 180.893 137.593 C 180.808 141.019,180.692 142.441,180.521 142.186 C 180.385 141.983,179.148 139.750,177.774 137.223 L 175.275 132.630 173.990 132.555 L 172.705 132.480 172.705 139.069 M252.523 132.672 C 252.253 132.941,252.334 140.812,252.620 142.144 C 253.582 146.628,259.946 147.403,262.116 143.300 C 262.598 142.389,262.642 141.911,262.648 137.469 L 262.655 132.630 261.725 132.553 L 260.794 132.476 260.793 136.648 C 260.791 142.726,260.179 144.169,257.606 144.169 C 254.893 144.169,254.346 142.930,254.344 136.787 L 254.342 132.506 253.515 132.506 C 253.060 132.506,252.614 132.581,252.523 132.672 M198.089 133.582 C 197.360 133.793,197.289 133.906,197.221 134.958 L 197.146 136.104 196.077 136.181 C 194.468 136.297,194.586 137.551,196.216 137.669 L 197.270 137.746 197.270 141.067 C 197.270 145.320,197.536 145.773,200.038 145.778 L 201.613 145.782 201.690 144.988 C 201.765 144.212,201.748 144.198,200.911 144.334 C 199.337 144.589,199.007 143.937,199.007 140.571 L 199.007 137.717 200.248 137.717 C 202.136 137.717,202.193 136.301,200.310 136.180 L 199.132 136.104 199.007 134.729 L 198.883 133.353 198.089 133.582 M323.635 133.656 C 322.898 133.967,322.829 134.091,322.829 135.098 L 322.829 136.200 321.774 136.276 C 320.720 136.352,320.679 136.403,320.813 137.469 C 320.830 137.605,321.282 137.717,321.817 137.717 L 322.790 137.717 322.872 141.088 L 322.953 144.459 323.763 145.182 C 325.094 146.370,327.684 146.164,327.503 144.885 C 327.431 144.376,327.304 144.304,326.593 144.376 C 325.059 144.529,324.814 144.020,324.814 140.670 L 324.814 137.744 325.993 137.669 C 327.824 137.551,327.941 136.296,326.132 136.180 L 324.938 136.104 324.861 134.864 C 324.767 133.340,324.652 133.226,323.635 133.656 M126.289 136.587 L 127.623 137.938 126.952 139.434 C 126.069 141.401,125.869 143.090,126.397 144.112 C 126.953 145.187,126.907 145.549,126.079 146.603 C 125.684 147.106,124.399 149.428,123.224 151.762 C 122.050 154.096,120.884 156.191,120.633 156.417 C 120.062 156.934,116.459 158.014,114.617 158.220 L 113.228 158.375 113.342 157.600 C 113.448 156.877,113.404 156.824,112.709 156.824 C 112.024 156.824,111.965 156.757,111.998 156.017 C 112.030 155.318,111.960 155.219,111.472 155.271 C 110.978 155.323,110.929 155.248,111.068 154.650 C 111.311 153.602,111.831 153.350,113.757 153.348 C 114.720 153.347,116.083 153.277,116.784 153.192 L 118.060 153.039 119.568 149.410 C 121.675 144.340,121.668 144.880,119.659 142.418 C 115.718 137.589,115.583 137.089,118.273 137.293 C 120.169 137.436,120.592 137.194,119.717 136.468 C 118.962 135.841,120.574 135.303,123.334 135.261 L 124.955 135.236 126.289 136.587 M187.443 136.335 C 186.665 136.674,186.266 137.425,186.588 137.945 C 186.715 138.151,186.961 138.125,187.488 137.850 C 189.260 136.926,191.563 137.623,191.563 139.082 C 191.563 139.639,191.463 139.702,190.583 139.702 C 186.794 139.702,184.600 141.688,185.581 144.231 C 186.190 145.811,188.978 146.431,190.885 145.409 C 191.654 144.997,191.811 144.976,191.811 145.285 C 191.811 145.545,192.073 145.658,192.680 145.658 L 193.548 145.658 193.534 142.246 C 193.518 138.305,193.274 137.347,192.085 136.547 C 191.098 135.884,188.728 135.775,187.443 136.335 M211.166 136.258 C 207.447 137.737,207.490 143.962,211.229 145.524 C 215.841 147.451,220.040 142.143,217.244 137.919 C 216.150 136.266,213.185 135.456,211.166 136.258 M223.689 136.216 C 223.411 136.329,223.034 136.601,222.852 136.821 C 222.401 137.364,222.084 137.324,222.084 136.725 C 222.084 136.323,221.919 136.228,221.216 136.228 L 220.347 136.228 220.347 140.943 L 220.347 145.658 221.340 145.658 L 222.333 145.658 222.333 142.796 C 222.333 138.826,223.003 137.469,224.966 137.469 C 226.684 137.469,226.913 137.984,227.003 142.037 L 227.084 145.658 228.085 145.658 L 229.086 145.658 228.987 141.998 C 228.840 136.622,227.174 134.803,223.689 136.216 M233.189 136.392 C 232.276 136.770,232.115 137.057,232.401 137.800 C 232.526 138.126,232.648 138.129,233.385 137.821 C 235.393 136.982,237.469 137.623,237.469 139.082 C 237.469 139.639,237.369 139.702,236.489 139.702 C 232.409 139.702,229.898 142.364,231.753 144.722 C 232.737 145.973,235.815 146.333,236.926 145.327 C 237.493 144.815,237.717 144.803,237.717 145.285 C 237.717 145.545,237.979 145.658,238.586 145.658 L 239.454 145.658 239.440 142.246 C 239.424 138.305,239.180 137.347,237.991 136.547 C 236.971 135.862,234.648 135.786,233.189 136.392 M268.864 136.368 C 268.458 136.580,268.039 136.887,267.934 137.049 C 267.805 137.248,267.692 137.163,267.589 136.787 C 267.469 136.348,267.256 136.228,266.596 136.228 L 265.757 136.228 265.757 140.943 L 265.757 145.658 266.749 145.658 L 267.742 145.658 267.742 142.668 C 267.742 138.793,268.392 137.469,270.295 137.469 C 272.071 137.469,272.457 138.382,272.457 142.593 L 272.457 145.658 273.325 145.658 L 274.194 145.658 274.194 142.052 C 274.194 137.974,273.942 136.992,272.737 136.369 C 271.776 135.872,269.817 135.872,268.864 136.368 M294.045 136.146 C 290.586 137.565,290.254 143.597,293.538 145.334 C 295.744 146.501,299.256 145.998,299.256 144.517 C 299.256 144.052,299.228 143.674,299.194 143.676 C 299.159 143.678,298.685 143.841,298.139 144.038 C 296.142 144.757,294.395 144.326,293.677 142.936 C 292.918 141.470,292.977 141.439,296.534 141.439 C 300.266 141.439,300.248 141.451,299.762 139.278 C 299.180 136.678,296.426 135.169,294.045 136.146 M304.895 136.476 C 304.140 137.070,303.970 137.093,303.970 136.600 C 303.970 136.341,303.708 136.228,303.102 136.228 L 302.233 136.228 302.233 140.943 L 302.233 145.658 303.226 145.658 L 304.218 145.658 304.219 142.742 C 304.219 138.779,304.905 137.484,307.010 137.473 C 307.602 137.469,307.692 137.370,307.692 136.725 C 307.692 135.778,305.977 135.625,304.895 136.476 M310.115 136.355 C 308.006 137.541,308.305 140.015,310.712 141.301 C 312.393 142.199,312.903 142.643,312.903 143.209 C 312.903 144.242,310.997 144.701,309.398 144.054 C 308.908 143.856,308.503 145.078,308.920 145.496 C 309.397 145.972,312.252 146.003,313.224 145.541 C 315.590 144.419,315.214 141.223,312.594 140.189 C 309.892 139.122,310.142 137.220,312.941 137.551 C 314.114 137.690,314.925 136.926,314.284 136.286 C 313.917 135.919,310.798 135.970,310.115 136.355 M203.970 140.943 L 203.970 145.658 204.839 145.658 L 205.707 145.658 205.707 140.943 L 205.707 136.228 204.839 136.228 L 203.970 136.228 203.970 140.943 M277.419 140.943 L 277.419 145.658 278.412 145.658 L 279.404 145.658 279.404 140.943 L 279.404 136.228 278.412 136.228 L 277.419 136.228 277.419 140.943 M281.517 137.159 C 281.721 137.671,282.484 139.764,283.213 141.811 L 284.539 145.533 285.694 145.609 C 286.329 145.651,286.849 145.640,286.849 145.586 C 286.849 145.532,287.574 143.503,288.462 141.076 C 290.354 135.901,290.304 136.228,289.206 136.228 C 288.728 136.228,288.337 136.260,288.337 136.300 C 288.337 136.355,286.698 141.091,285.959 143.169 C 285.748 143.764,285.466 143.132,284.327 139.516 L 283.292 136.228 282.218 136.228 L 281.145 136.228 281.517 137.159 M317.122 140.943 L 317.122 145.658 317.990 145.658 L 318.859 145.658 318.859 140.943 L 318.859 136.228 317.990 136.228 L 317.122 136.228 317.122 140.943 M329.021 138.882 C 329.549 140.357,330.327 142.492,330.748 143.627 C 331.872 146.658,331.447 148.242,329.457 148.434 C 328.191 148.556,328.290 149.721,329.576 149.828 C 331.521 149.990,332.360 149.120,333.664 145.591 C 334.841 142.407,336.973 136.420,336.973 136.299 C 336.973 136.243,336.558 136.233,336.051 136.275 L 335.130 136.352 333.911 140.023 C 333.241 142.042,332.629 143.630,332.550 143.551 C 332.471 143.472,331.895 141.820,331.269 139.880 L 330.132 136.352 329.096 136.277 L 328.060 136.201 329.021 138.882 M214.619 137.830 C 216.418 138.760,216.671 142.108,215.054 143.589 C 212.985 145.485,210.425 144.050,210.423 140.993 C 210.421 138.153,212.384 136.674,214.619 137.830 M297.209 138.027 C 297.495 138.334,297.806 138.893,297.899 139.268 L 298.069 139.950 295.684 139.950 C 293.436 139.950,293.300 139.921,293.300 139.435 C 293.300 137.836,296.092 136.830,297.209 138.027 M191.563 141.924 C 191.563 143.974,189.497 145.151,187.882 144.021 C 186.370 142.961,187.934 141.192,190.385 141.191 C 191.525 141.191,191.563 141.215,191.563 141.924 M237.461 142.122 C 237.445 144.014,235.343 145.110,233.802 144.031 C 232.236 142.934,233.742 141.222,236.290 141.201 L 237.469 141.191 237.461 142.122 M186.725 153.827 C 185.722 154.249,185.309 155.011,185.174 156.688 L 185.044 158.313 183.961 158.313 C 182.924 158.313,182.878 158.344,182.878 159.057 C 182.878 159.774,182.920 159.801,183.995 159.801 L 185.112 159.801 185.112 163.912 L 185.112 168.022 185.918 167.944 L 186.725 167.866 186.793 163.834 L 186.861 159.801 188.095 159.801 C 189.978 159.801,190.029 158.385,188.151 158.264 L 186.973 158.189 187.015 156.980 C 187.066 155.551,187.258 155.311,188.511 155.108 C 189.309 154.978,189.454 154.859,189.454 154.338 C 189.454 153.666,187.829 153.362,186.725 153.827 M205.459 155.211 L 205.459 156.328 206.452 156.328 L 207.444 156.328 207.444 155.211 L 207.444 154.094 206.452 154.094 L 205.459 154.094 205.459 155.211 M197.275 155.025 C 194.151 156.595,194.738 160.057,198.431 161.838 C 202.384 163.743,201.140 167.439,196.973 166.169 C 195.626 165.758,195.533 165.805,195.533 166.904 C 195.533 167.647,195.616 167.737,196.464 167.911 C 203.169 169.294,205.658 163.117,199.613 160.097 C 195.713 158.149,197.358 155.443,201.737 156.601 C 202.009 156.673,202.129 156.457,202.184 155.802 C 202.248 155.042,202.171 154.880,201.688 154.750 C 200.529 154.440,198.145 154.588,197.275 155.025 M174.697 158.457 C 169.889 160.543,171.438 168.072,176.675 168.069 C 179.381 168.068,181.285 166.369,181.560 163.710 C 181.972 159.720,178.287 156.900,174.697 158.457 M213.901 158.328 C 213.562 158.470,213.088 158.766,212.846 158.985 C 212.439 159.353,212.407 159.343,212.407 158.847 C 212.407 158.388,212.265 158.313,211.409 158.313 L 210.411 158.313 210.479 163.089 L 210.546 167.866 211.414 167.866 L 212.283 167.866 212.413 164.640 C 212.582 160.457,213.401 159.187,215.618 159.674 C 216.785 159.931,216.985 160.557,217.122 164.392 L 217.246 167.866 218.114 167.866 L 218.983 167.866 219.052 164.694 C 219.173 159.162,217.330 156.884,213.901 158.328 M223.915 158.421 C 222.430 159.068,221.324 161.156,221.359 163.250 C 221.422 167.068,224.597 169.033,227.761 167.212 C 228.793 166.617,228.843 166.664,228.627 168.017 C 228.261 170.305,226.324 170.990,222.767 170.090 C 222.134 169.930,222.084 169.972,222.084 170.671 C 222.084 172.137,226.344 172.669,228.474 171.470 C 230.337 170.421,230.521 169.710,230.521 163.569 L 230.521 158.313 229.653 158.313 C 228.954 158.313,228.784 158.408,228.784 158.801 C 228.784 159.265,228.738 159.259,227.881 158.677 C 226.847 157.975,225.186 157.868,223.915 158.421 M234.926 158.476 C 234.107 158.815,233.995 158.964,233.995 159.710 C 233.995 160.545,234.004 160.552,234.584 160.171 C 236.332 159.026,238.698 159.645,239.099 161.352 L 239.260 162.035 237.488 162.035 C 234.373 162.035,232.587 163.358,232.827 165.489 C 233.086 167.783,235.593 168.861,237.954 167.693 C 239.117 167.118,239.178 167.111,239.295 167.558 C 239.385 167.905,239.599 168.006,240.118 167.946 L 240.819 167.866 240.884 164.268 C 240.986 158.651,239.047 156.766,234.926 158.476 M246.836 158.631 C 245.738 159.196,245.658 159.206,245.658 158.775 C 245.658 158.412,245.471 158.313,244.785 158.313 L 243.913 158.313 243.979 165.074 L 244.045 171.836 244.851 171.914 L 245.658 171.992 245.658 169.495 C 245.658 166.751,245.640 166.788,246.598 167.492 C 249.416 169.564,252.946 167.159,252.968 163.152 C 252.990 159.075,250.105 156.948,246.836 158.631 M257.576 158.457 C 254.481 159.800,253.756 164.057,256.170 166.711 C 258.876 169.686,264.124 167.755,264.463 163.661 C 264.794 159.676,261.136 156.913,257.576 158.457 M269.389 158.677 C 268.533 159.259,268.486 159.265,268.486 158.801 C 268.486 158.408,268.316 158.313,267.618 158.313 L 266.749 158.313 266.749 163.023 L 266.749 167.732 267.369 167.888 C 268.639 168.207,268.734 167.995,268.734 164.880 C 268.734 163.235,268.854 161.770,269.014 161.460 C 269.613 160.297,270.283 159.801,271.259 159.801 C 272.179 159.801,272.208 159.774,272.208 158.933 C 272.208 157.807,270.853 157.684,269.389 158.677 M276.551 158.243 C 273.387 159.011,272.415 164.528,275.015 166.957 C 276.955 168.769,281.390 168.528,281.390 166.610 L 281.390 165.744 280.583 166.166 C 278.844 167.077,276.587 166.522,275.794 164.988 C 275.052 163.554,275.113 163.524,278.769 163.524 C 282.528 163.524,282.469 163.554,282.131 161.773 C 281.597 158.957,279.382 157.555,276.551 158.243 M205.516 163.074 L 205.583 167.866 206.452 167.866 L 207.320 167.866 207.320 163.151 L 207.320 158.437 206.384 158.359 L 205.448 158.282 205.516 163.074 M178.457 160.214 C 181.184 162.683,178.812 167.904,175.645 166.402 C 173.363 165.319,173.189 161.158,175.375 159.928 C 176.224 159.451,177.772 159.595,178.457 160.214 M226.894 159.790 C 228.764 160.501,229.265 164.317,227.669 165.693 C 225.118 167.893,222.331 164.777,223.727 161.288 C 224.309 159.834,225.512 159.265,226.894 159.790 M250.126 160.176 C 251.291 161.230,251.348 164.404,250.226 165.737 C 247.904 168.498,244.489 164.704,246.216 161.282 C 247.073 159.584,248.901 159.067,250.126 160.176 M261.347 160.225 C 263.235 161.934,262.828 165.491,260.639 166.406 C 257.822 167.583,255.565 163.785,257.351 160.874 C 258.166 159.546,260.226 159.211,261.347 160.225 M279.356 160.171 C 279.760 160.511,280.144 161.069,280.209 161.412 L 280.328 162.035 277.865 162.035 C 275.425 162.035,275.402 162.029,275.571 161.476 C 276.112 159.699,278.015 159.043,279.356 160.171 M239.051 164.355 C 238.991 166.241,236.605 167.369,235.257 166.148 C 233.820 164.848,235.538 163.227,238.213 163.357 C 239.054 163.398,239.081 163.430,239.051 164.355 " stroke="none" fill="#073e7c" fill-rule="evenodd"></path><path id="path1" d="M0.000 124.069 L 0.000 248.139 200.000 248.139 L 400.000 248.139 400.000 124.069 L 400.000 0.000 200.000 0.000 L 0.000 0.000 0.000 124.069 M326.826 59.013 C 329.655 59.524,333.952 60.760,335.298 61.450 L 335.980 61.799 335.980 65.763 C 335.980 70.139,335.976 70.148,334.487 69.145 C 330.396 66.387,324.289 64.897,317.790 65.070 C 310.014 65.278,306.513 67.190,306.246 71.377 C 305.981 75.544,308.707 77.876,318.238 81.634 C 334.543 88.063,339.248 92.492,339.640 101.777 C 340.164 114.200,330.059 120.993,312.159 120.251 C 304.191 119.920,294.675 117.662,294.023 115.948 C 293.712 115.130,293.727 106.700,294.040 106.700 C 294.173 106.700,294.860 107.137,295.565 107.671 C 304.824 114.678,322.898 114.627,326.485 107.584 C 329.425 101.809,326.272 98.251,314.268 93.798 C 298.899 88.097,294.698 83.996,294.693 74.690 C 294.688 65.791,299.724 60.751,310.546 58.823 C 314.328 58.150,322.580 58.246,326.826 59.013 M185.326 60.911 C 187.104 61.896,186.458 61.031,201.730 82.878 C 209.123 93.455,215.276 102.146,215.403 102.192 C 215.543 102.242,215.633 94.024,215.633 81.162 L 215.633 60.050 219.727 60.050 L 223.821 60.050 223.821 89.206 L 223.821 118.362 218.300 118.360 C 211.947 118.357,211.179 118.165,209.303 116.105 C 208.508 115.231,200.020 103.275,192.182 91.988 C 191.499 91.004,188.707 87.016,185.978 83.127 L 181.017 76.055 180.893 97.146 L 180.769 118.238 176.737 118.306 L 172.705 118.375 172.705 89.195 L 172.705 60.016 178.350 60.095 L 183.995 60.174 185.326 60.911 M247.649 81.141 C 247.792 104.290,247.715 103.174,249.410 106.657 C 253.384 114.824,267.415 115.234,272.091 107.320 C 274.167 103.806,274.049 105.274,274.191 81.390 L 274.318 60.174 280.397 60.174 L 286.476 60.174 286.476 80.893 C 286.476 99.201,286.429 101.845,286.066 103.606 C 283.774 114.735,275.283 120.347,260.735 120.347 C 246.650 120.347,237.996 114.554,235.822 103.669 C 235.414 101.627,234.963 61.367,235.337 60.392 C 235.449 60.100,236.486 60.052,241.495 60.107 L 247.519 60.174 247.649 81.141 M158.746 92.866 C 158.658 129.010,158.781 126.226,156.951 133.489 C 150.765 158.046,133.624 177.808,111.946 185.375 L 109.625 186.185 107.852 185.620 C 86.828 178.925,69.435 159.635,62.535 135.360 C 60.310 127.535,60.463 130.496,60.367 93.238 L 60.282 60.298 109.554 60.298 L 158.826 60.298 158.746 92.866 M130.954 66.259 C 127.273 67.189,124.261 70.505,123.897 74.028 L 123.755 75.408 124.635 75.138 C 125.357 74.916,125.544 74.718,125.671 74.040 C 126.664 68.748,132.986 66.092,137.445 69.095 C 143.404 73.106,141.212 82.422,134.148 83.107 C 132.171 83.298,131.362 85.112,133.253 85.112 C 140.819 85.112,145.372 76.365,141.062 70.109 C 138.933 67.017,134.554 65.349,130.954 66.259 M75.931 68.013 C 74.225 68.129,72.576 68.337,72.268 68.475 L 71.706 68.727 71.771 78.222 L 71.836 87.717 73.201 87.593 C 76.721 87.273,84.217 87.522,86.166 88.023 L 88.089 88.517 88.089 78.985 L 88.089 69.454 87.220 69.091 C 84.830 68.092,80.644 67.692,75.931 68.013 M95.098 68.016 C 93.199 68.237,90.509 68.865,89.770 69.261 C 89.361 69.480,89.330 70.156,89.330 79.017 L 89.330 88.538 90.633 88.208 C 93.936 87.371,101.357 87.080,105.087 87.642 C 105.575 87.716,105.584 87.558,105.648 78.107 L 105.713 68.497 105.152 68.369 C 104.583 68.238,97.603 67.722,97.146 67.777 C 97.010 67.793,96.088 67.901,95.098 68.016 M83.012 70.848 C 85.230 71.413,85.856 71.718,85.856 72.230 C 85.856 73.068,85.053 73.230,83.536 72.697 C 82.044 72.173,79.117 72.061,76.802 72.441 C 75.290 72.689,74.938 72.573,74.938 71.826 C 74.938 70.677,79.955 70.069,83.012 70.848 M101.465 70.919 C 103.527 71.367,102.918 72.779,100.812 72.433 C 98.630 72.074,95.666 72.181,94.075 72.676 C 92.434 73.187,91.672 72.987,91.846 72.093 C 92.095 70.822,97.811 70.124,101.465 70.919 M83.982 74.952 C 85.733 75.493,86.174 75.967,85.528 76.613 C 85.167 76.975,85.000 76.968,83.571 76.531 C 82.071 76.073,80.622 76.019,76.060 76.252 C 75.033 76.305,74.558 75.715,75.150 75.123 C 75.952 74.321,81.587 74.212,83.982 74.952 M102.047 74.901 C 104.016 75.688,102.577 76.541,99.933 76.154 C 97.698 75.827,95.532 75.982,93.814 76.593 C 92.425 77.086,91.811 76.926,91.811 76.069 C 91.811 75.525,91.987 75.399,93.238 75.051 C 94.023 74.832,94.777 74.608,94.913 74.551 C 95.415 74.344,101.386 74.637,102.047 74.901 M125.836 75.962 C 115.485 77.681,115.615 92.909,125.997 94.780 C 128.086 95.157,132.010 94.386,132.010 93.600 C 132.010 92.819,131.017 92.477,129.683 92.797 C 124.423 94.059,119.980 90.653,119.980 85.360 C 119.980 77.884,129.045 74.810,133.651 80.722 C 134.587 81.923,134.926 82.069,135.750 81.628 C 136.201 81.387,136.207 81.324,135.843 80.621 C 134.131 77.310,129.817 75.301,125.836 75.962 M137.469 75.930 C 136.305 76.128,134.491 76.799,134.491 77.033 C 134.491 77.655,135.594 78.357,136.196 78.117 C 136.555 77.974,137.455 77.787,138.196 77.700 C 139.401 77.560,139.563 77.471,139.726 76.859 C 139.902 76.200,139.427 75.619,138.788 75.712 C 138.677 75.728,138.083 75.826,137.469 75.930 M143.565 77.790 C 143.420 78.563,143.496 78.738,144.272 79.419 C 149.329 83.860,145.797 92.657,138.958 92.654 C 133.372 92.652,129.428 86.450,131.972 81.667 L 132.550 80.579 132.053 80.081 C 131.102 79.131,130.016 80.624,129.569 83.499 C 128.420 90.880,135.518 96.507,142.556 93.795 C 148.767 91.402,150.400 82.788,145.518 78.171 C 143.952 76.690,143.778 76.656,143.565 77.790 M84.243 78.835 C 87.129 79.734,86.295 81.013,83.282 80.308 C 81.301 79.845,78.865 79.781,76.959 80.142 C 75.413 80.435,74.938 80.283,74.938 79.494 C 74.938 78.785,75.098 78.709,77.191 78.417 C 79.425 78.106,82.488 78.288,84.243 78.835 M100.124 78.422 C 102.450 78.755,102.730 78.862,102.730 79.412 C 102.730 80.124,102.018 80.368,100.620 80.136 C 98.582 79.798,95.839 79.874,94.186 80.314 C 92.472 80.771,91.811 80.663,91.811 79.923 C 91.811 78.660,96.222 77.864,100.124 78.422 M125.107 79.170 L 124.532 79.401 125.061 80.333 C 125.963 81.923,128.084 83.929,128.355 83.449 C 128.840 82.591,128.739 81.935,128.017 81.245 C 127.601 80.847,127.036 80.158,126.761 79.715 C 126.235 78.864,126.035 78.798,125.107 79.170 M84.119 82.626 C 87.384 83.505,86.226 84.861,82.910 84.043 C 80.991 83.570,80.623 83.553,78.121 83.832 C 75.157 84.161,74.938 84.121,74.938 83.256 C 74.938 82.046,80.536 81.662,84.119 82.626 M102.183 82.603 C 103.814 83.476,102.434 84.283,99.990 83.887 C 97.696 83.515,96.609 83.558,94.453 84.110 C 92.322 84.655,91.811 84.581,91.811 83.729 C 91.811 82.386,100.096 81.486,102.183 82.603 M135.819 85.780 C 135.433 85.855,135.239 86.134,135.116 86.789 C 135.023 87.287,134.724 88.130,134.452 88.662 L 133.958 89.631 134.516 90.225 C 134.823 90.552,135.158 90.819,135.261 90.819 C 135.633 90.819,136.741 88.151,136.889 86.896 C 137.050 85.535,137.054 85.538,135.819 85.780 M62.604 99.176 C 62.259 100.074,62.718 124.796,63.121 127.037 C 65.431 139.896,71.737 153.537,79.870 163.275 C 86.345 171.027,97.288 178.669,107.257 182.399 L 109.427 183.211 111.848 182.269 C 132.195 174.346,146.858 157.888,153.699 135.294 C 155.984 127.747,156.367 124.000,156.276 110.105 L 156.203 98.994 109.460 98.939 C 73.740 98.896,62.689 98.952,62.604 99.176 M92.184 104.342 C 92.730 104.534,93.444 105.035,93.772 105.455 L 94.368 106.218 95.149 105.365 C 96.209 104.208,97.509 103.885,100.083 104.141 C 101.197 104.252,102.416 104.314,102.792 104.279 C 103.475 104.216,103.765 104.754,103.226 105.087 C 102.654 105.440,103.054 105.707,104.156 105.709 C 105.656 105.710,106.910 106.059,107.951 106.764 C 109.072 107.524,109.067 107.710,107.902 108.516 L 106.892 109.216 107.721 109.633 C 108.178 109.862,108.794 110.440,109.091 110.918 C 109.389 111.396,109.863 112.039,110.145 112.347 C 110.783 113.046,110.456 113.985,109.381 114.541 C 108.435 115.030,109.016 116.172,110.475 116.692 C 110.950 116.861,109.771 118.048,108.766 118.411 C 107.800 118.761,107.802 118.752,108.416 119.759 C 108.849 120.469,109.079 120.571,111.082 120.935 C 115.996 121.830,117.126 121.900,123.573 121.703 C 130.800 121.483,133.085 121.510,134.921 121.835 C 136.462 122.109,140.913 121.769,143.515 121.180 C 147.380 120.304,148.769 119.218,148.368 117.382 C 147.887 115.179,145.577 115.115,138.952 117.120 C 125.156 121.295,114.133 119.539,114.146 113.169 C 114.156 108.810,116.852 107.304,124.489 107.392 L 129.252 107.447 130.365 106.696 C 130.977 106.283,132.228 105.759,133.146 105.533 C 134.872 105.107,135.116 105.121,139.770 105.923 C 140.421 106.035,141.581 106.028,142.346 105.908 C 143.928 105.660,144.175 105.759,143.588 106.408 C 142.957 107.105,143.068 107.196,144.551 107.196 C 146.003 107.196,147.416 107.748,148.209 108.625 C 148.645 109.107,148.625 109.117,146.845 109.242 C 145.769 109.317,144.535 109.591,143.797 109.917 C 142.848 110.336,142.220 110.442,141.129 110.366 C 140.344 110.311,139.702 110.320,139.702 110.386 C 139.702 110.682,140.560 111.414,140.907 111.414 C 141.675 111.414,140.801 111.861,139.504 112.132 C 136.137 112.835,131.406 112.255,129.512 110.906 C 128.793 110.394,121.938 110.101,119.975 110.499 C 117.081 111.084,116.630 114.076,119.239 115.380 C 122.061 116.791,131.170 116.162,137.221 114.138 C 147.215 110.797,152.201 112.173,152.165 118.262 C 152.143 122.100,148.203 124.638,140.816 125.574 C 139.453 125.747,138.316 125.901,138.289 125.916 C 138.263 125.932,138.354 126.388,138.492 126.930 C 138.631 127.472,138.828 130.540,138.930 133.747 C 139.140 140.336,139.346 141.194,141.038 142.558 C 141.545 142.966,142.217 143.530,142.531 143.811 C 142.846 144.092,143.614 144.517,144.237 144.755 C 146.068 145.454,146.123 145.741,144.571 146.500 C 142.775 147.379,142.477 147.752,143.058 148.393 C 143.588 148.980,143.733 148.809,141.417 150.321 L 139.540 151.547 137.971 155.240 C 135.700 160.588,135.945 160.341,131.881 161.397 C 129.318 162.063,126.948 162.229,126.659 161.762 C 126.563 161.605,126.182 161.550,125.766 161.633 C 125.055 161.776,125.044 161.762,125.203 160.917 C 125.389 159.925,124.950 159.579,124.089 160.039 C 123.440 160.387,123.385 159.932,123.974 159.091 C 124.519 158.313,124.098 157.859,123.208 158.264 C 122.686 158.502,122.581 158.486,122.581 158.172 C 122.581 157.680,123.688 156.576,124.182 156.576 C 124.393 156.576,124.566 156.482,124.566 156.367 C 124.566 155.865,126.126 155.476,128.660 155.349 L 131.390 155.211 132.068 153.970 C 132.441 153.288,133.216 151.316,133.790 149.587 L 134.835 146.445 132.243 143.632 C 130.818 142.085,129.349 140.429,128.979 139.953 C 128.224 138.981,128.070 139.051,127.457 140.638 C 126.579 142.909,127.163 144.711,129.073 145.620 C 130.402 146.253,130.506 146.643,129.425 146.932 C 127.629 147.412,126.768 148.412,127.476 149.194 C 127.883 149.644,127.883 149.681,127.465 149.915 C 124.881 151.361,124.002 152.243,122.735 154.657 C 121.205 157.576,121.239 157.550,117.439 158.526 C 113.876 159.442,113.190 159.478,112.323 158.796 C 111.795 158.381,111.581 158.339,111.152 158.568 C 110.462 158.938,110.337 158.770,110.704 157.966 C 111.100 157.097,110.715 156.650,109.931 157.069 C 109.180 157.471,109.073 157.257,109.556 156.322 C 110.077 155.315,109.751 154.860,108.816 155.287 C 108.104 155.611,107.943 155.237,108.499 154.549 C 109.537 153.262,111.710 152.491,114.562 152.397 C 116.330 152.338,117.380 152.202,117.456 152.021 C 117.522 151.865,118.199 150.302,118.961 148.547 C 120.650 144.662,120.651 144.986,118.948 142.979 C 117.854 141.690,116.366 139.602,115.223 137.754 C 115.132 137.607,113.399 138.241,113.407 138.419 C 113.412 138.511,113.579 138.802,113.780 139.067 C 114.460 139.967,114.244 140.198,112.717 140.201 C 111.718 140.203,110.918 140.384,110.050 140.804 C 108.005 141.794,108.014 141.780,108.798 142.712 L 109.489 143.534 108.181 143.865 C 105.843 144.457,104.270 145.805,105.164 146.450 C 106.087 147.115,105.978 147.339,104.281 148.276 C 100.229 150.513,98.320 152.656,96.458 157.058 C 95.054 160.376,94.952 160.459,91.046 161.443 C 87.917 162.231,85.620 162.344,84.953 161.742 C 84.606 161.430,84.378 161.389,84.038 161.579 C 83.442 161.913,83.269 161.704,83.611 161.063 C 84.107 160.138,83.478 159.348,82.614 159.810 C 82.091 160.090,81.869 159.250,82.382 158.933 C 82.696 158.739,82.709 157.816,82.398 157.816 C 82.271 157.816,81.885 157.923,81.542 158.054 C 81.007 158.257,80.939 158.230,81.068 157.868 C 81.530 156.568,84.012 155.336,86.174 155.333 C 89.704 155.328,90.231 155.159,90.794 153.850 C 91.352 152.552,92.618 148.104,93.302 145.037 L 93.744 143.052 92.619 141.563 C 91.180 139.660,90.583 138.348,90.576 137.076 C 90.569 135.676,90.429 135.641,89.346 136.768 L 88.400 137.752 87.852 136.866 C 87.211 135.828,87.388 135.856,85.400 136.480 C 84.535 136.751,83.371 136.973,82.814 136.973 C 81.949 136.973,81.651 137.127,80.774 138.027 C 80.209 138.607,79.414 139.270,79.007 139.500 L 78.266 139.918 78.277 137.267 C 78.289 134.398,78.367 134.530,76.861 134.885 L 76.179 135.045 76.179 132.805 C 76.179 129.122,75.696 127.248,74.049 124.547 C 73.265 123.261,72.248 121.518,71.788 120.674 C 71.301 119.780,70.445 118.715,69.735 118.121 C 68.416 117.017,67.853 115.829,68.105 114.684 C 68.235 114.090,68.154 113.935,67.566 113.659 L 66.873 113.334 67.556 113.098 C 67.991 112.947,68.238 112.684,68.238 112.370 C 68.238 112.099,68.348 111.674,68.481 111.424 C 68.657 111.095,68.624 110.887,68.360 110.668 C 67.885 110.274,68.116 109.926,68.853 109.926 C 70.249 109.926,70.607 109.316,69.727 108.437 L 69.231 107.940 69.942 107.940 C 70.333 107.940,70.949 108.173,71.310 108.458 C 71.672 108.742,72.349 109.080,72.815 109.209 C 73.795 109.480,73.909 109.722,75.423 114.764 L 76.392 117.990 78.050 119.541 C 80.001 121.365,79.983 121.360,80.374 120.161 C 80.541 119.650,80.731 119.105,80.796 118.950 C 80.861 118.796,80.640 118.601,80.303 118.516 C 78.950 118.177,77.775 116.782,78.616 116.515 C 79.956 116.090,80.453 115.016,79.510 114.587 C 78.371 114.068,77.990 112.942,78.739 112.311 C 79.081 112.023,79.433 111.540,79.520 111.239 C 79.713 110.576,81.023 109.429,81.588 109.429 C 81.877 109.429,81.758 109.211,81.181 108.685 C 80.733 108.275,80.258 107.940,80.125 107.940 C 79.976 107.940,79.985 107.750,80.148 107.445 C 80.585 106.629,82.350 105.892,84.181 105.761 C 85.754 105.648,86.186 105.444,85.608 105.087 C 85.039 104.735,85.351 104.155,86.042 104.280 C 86.417 104.348,87.283 104.321,87.965 104.220 C 89.923 103.930,91.113 103.965,92.184 104.342 M244.417 138.586 L 244.417 145.658 243.424 145.658 L 242.432 145.658 242.432 138.751 C 242.432 131.253,242.390 131.514,243.590 131.514 L 244.417 131.514 244.417 138.586 M205.831 133.002 C 205.831 134.124,203.920 134.395,203.764 133.295 C 203.619 132.267,203.888 131.973,204.899 132.057 C 205.784 132.130,205.831 132.178,205.831 133.002 M279.404 133.002 L 279.404 133.995 278.412 133.995 L 277.419 133.995 277.419 133.002 L 277.419 132.010 278.412 132.010 L 279.404 132.010 279.404 133.002 M319.107 133.017 L 319.107 134.024 318.052 133.947 C 316.287 133.820,316.338 132.010,318.106 132.010 L 319.107 132.010 319.107 133.017 M177.774 137.223 C 179.148 139.750,180.385 141.983,180.521 142.186 C 180.692 142.441,180.808 141.019,180.893 137.593 L 181.017 132.630 181.886 132.630 L 182.754 132.630 182.820 139.144 L 182.887 145.658 181.663 145.658 L 180.440 145.658 179.493 143.983 C 178.234 141.754,177.537 140.491,176.058 137.765 C 175.377 136.510,174.735 135.484,174.631 135.484 C 174.527 135.484,174.442 137.773,174.442 140.571 L 174.442 145.658 173.573 145.658 L 172.705 145.658 172.705 139.069 L 172.705 132.480 173.990 132.555 L 175.275 132.630 177.774 137.223 M254.344 136.787 C 254.346 142.930,254.893 144.169,257.606 144.169 C 260.179 144.169,260.791 142.726,260.793 136.648 L 260.794 132.476 261.725 132.553 L 262.655 132.630 262.648 137.469 C 262.639 144.199,261.623 145.909,257.638 145.904 C 253.448 145.899,252.357 144.035,252.357 136.878 C 252.357 132.434,252.338 132.506,253.515 132.506 L 254.342 132.506 254.344 136.787 M200.310 136.180 C 202.193 136.301,202.136 137.717,200.248 137.717 L 199.007 137.717 199.007 140.571 C 199.007 143.937,199.337 144.589,200.911 144.334 C 201.748 144.198,201.765 144.212,201.690 144.988 L 201.613 145.782 200.038 145.778 C 197.536 145.773,197.270 145.320,197.270 141.067 L 197.270 137.746 196.216 137.669 C 194.586 137.551,194.468 136.297,196.077 136.181 L 197.146 136.104 197.221 134.958 C 197.289 133.906,197.360 133.793,198.089 133.582 L 198.883 133.353 199.007 134.729 L 199.132 136.104 200.310 136.180 M324.861 134.864 L 324.938 136.104 326.132 136.180 C 327.941 136.296,327.824 137.551,325.993 137.669 L 324.814 137.744 324.814 140.670 C 324.814 144.020,325.059 144.529,326.593 144.376 C 327.304 144.304,327.431 144.376,327.503 144.885 C 327.684 146.164,325.094 146.370,323.763 145.182 L 322.953 144.459 322.872 141.088 L 322.790 137.717 321.817 137.717 C 321.282 137.717,320.830 137.605,320.813 137.469 C 320.679 136.403,320.720 136.352,321.774 136.276 L 322.829 136.200 322.829 135.098 C 322.829 132.963,324.730 132.744,324.861 134.864 M192.085 136.547 C 193.274 137.347,193.518 138.305,193.534 142.246 L 193.548 145.658 192.680 145.658 C 192.073 145.658,191.811 145.545,191.811 145.285 C 191.811 144.976,191.654 144.997,190.885 145.409 C 188.978 146.431,186.190 145.811,185.581 144.231 C 184.600 141.688,186.794 139.702,190.583 139.702 C 191.463 139.702,191.563 139.639,191.563 139.082 C 191.563 137.623,189.260 136.926,187.488 137.850 C 186.675 138.274,186.320 138.018,186.543 137.166 C 186.864 135.939,190.566 135.526,192.085 136.547 M215.554 136.462 C 220.043 138.500,218.255 145.906,213.275 145.906 C 210.312 145.906,208.454 143.986,208.442 140.911 C 208.427 136.998,211.921 134.813,215.554 136.462 M227.303 136.357 C 228.607 137.031,228.876 137.933,228.987 141.998 L 229.086 145.658 228.085 145.658 L 227.084 145.658 227.003 142.037 C 226.913 137.984,226.684 137.469,224.966 137.469 C 223.003 137.469,222.333 138.826,222.333 142.796 L 222.333 145.658 221.340 145.658 L 220.347 145.658 220.347 140.943 L 220.347 136.228 221.216 136.228 C 221.919 136.228,222.084 136.323,222.084 136.725 C 222.084 137.324,222.401 137.364,222.852 136.821 C 223.583 135.940,226.008 135.687,227.303 136.357 M237.991 136.547 C 239.180 137.347,239.424 138.305,239.440 142.246 L 239.454 145.658 238.586 145.658 C 237.979 145.658,237.717 145.545,237.717 145.285 C 237.717 144.803,237.493 144.815,236.926 145.327 C 235.815 146.333,232.737 145.973,231.753 144.722 C 229.898 142.364,232.409 139.702,236.489 139.702 C 237.369 139.702,237.469 139.639,237.469 139.082 C 237.469 137.623,235.393 136.982,233.385 137.821 C 232.507 138.188,232.258 138.029,232.258 137.103 C 232.258 136.018,236.580 135.598,237.991 136.547 M272.737 136.369 C 273.942 136.992,274.194 137.974,274.194 142.052 L 274.194 145.658 273.325 145.658 L 272.457 145.658 272.457 142.593 C 272.457 138.382,272.071 137.469,270.295 137.469 C 268.392 137.469,267.742 138.793,267.742 142.668 L 267.742 145.658 266.749 145.658 L 265.757 145.658 265.757 140.943 L 265.757 136.228 266.596 136.228 C 267.256 136.228,267.469 136.348,267.589 136.787 C 267.692 137.163,267.805 137.248,267.934 137.049 C 268.592 136.035,271.338 135.646,272.737 136.369 M298.639 137.014 C 299.187 137.612,299.555 138.355,299.762 139.278 C 300.248 141.451,300.266 141.439,296.534 141.439 C 292.977 141.439,292.918 141.470,293.677 142.936 C 294.395 144.326,296.142 144.757,298.139 144.038 C 298.685 143.841,299.159 143.678,299.194 143.676 C 299.769 143.642,299.119 145.408,298.474 145.633 C 293.643 147.317,289.673 142.970,291.788 138.313 C 292.920 135.820,296.860 135.073,298.639 137.014 M307.692 136.725 C 307.692 137.370,307.602 137.469,307.010 137.473 C 304.905 137.484,304.219 138.779,304.219 142.742 L 304.218 145.658 303.226 145.658 L 302.233 145.658 302.233 140.943 L 302.233 136.228 303.102 136.228 C 303.708 136.228,303.970 136.341,303.970 136.600 C 303.970 137.093,304.140 137.070,304.895 136.476 C 305.977 135.625,307.692 135.778,307.692 136.725 M314.284 136.286 C 314.925 136.926,314.114 137.690,312.941 137.551 C 310.142 137.220,309.892 139.122,312.594 140.189 C 315.214 141.223,315.590 144.419,313.224 145.541 C 312.252 146.003,309.397 145.972,308.920 145.496 C 308.503 145.078,308.908 143.856,309.398 144.054 C 310.997 144.701,312.903 144.242,312.903 143.209 C 312.903 142.643,312.393 142.199,310.712 141.301 C 308.305 140.015,308.006 137.541,310.115 136.355 C 310.798 135.970,313.917 135.919,314.284 136.286 M205.707 140.943 L 205.707 145.658 204.839 145.658 L 203.970 145.658 203.970 140.943 L 203.970 136.228 204.839 136.228 L 205.707 136.228 205.707 140.943 M279.404 140.943 L 279.404 145.658 278.412 145.658 L 277.419 145.658 277.419 140.943 L 277.419 136.228 278.412 136.228 L 279.404 136.228 279.404 140.943 M284.327 139.516 C 285.466 143.132,285.748 143.764,285.959 143.169 C 286.698 141.091,288.337 136.355,288.337 136.300 C 288.337 136.260,288.728 136.228,289.206 136.228 C 290.304 136.228,290.354 135.901,288.462 141.076 C 287.574 143.503,286.849 145.532,286.849 145.586 C 286.849 145.640,286.329 145.651,285.694 145.609 L 284.539 145.533 283.213 141.811 C 282.484 139.764,281.721 137.671,281.517 137.159 L 281.145 136.228 282.218 136.228 L 283.292 136.228 284.327 139.516 M318.859 140.943 L 318.859 145.658 317.990 145.658 L 317.122 145.658 317.122 140.943 L 317.122 136.228 317.990 136.228 L 318.859 136.228 318.859 140.943 M331.269 139.880 C 331.895 141.820,332.471 143.472,332.550 143.551 C 332.629 143.630,333.241 142.042,333.911 140.023 L 335.130 136.352 336.051 136.275 C 336.558 136.233,336.973 136.243,336.973 136.299 C 336.973 136.420,334.841 142.407,333.664 145.591 C 332.360 149.120,331.521 149.990,329.576 149.828 C 328.290 149.721,328.191 148.556,329.457 148.434 C 331.447 148.242,331.872 146.658,330.748 143.627 C 330.327 142.492,329.549 140.357,329.021 138.882 L 328.060 136.201 329.096 136.277 L 330.132 136.352 331.269 139.880 M211.716 137.856 C 209.823 139.182,210.047 143.413,212.051 144.175 C 214.823 145.229,217.147 142.046,215.751 139.105 C 215.038 137.603,212.986 136.967,211.716 137.856 M294.026 138.194 C 292.620 139.600,292.951 139.950,295.684 139.950 L 298.069 139.950 297.899 139.268 C 297.435 137.399,295.389 136.831,294.026 138.194 M188.337 141.626 C 186.684 142.452,187.239 144.417,189.125 144.417 C 190.649 144.417,191.563 143.482,191.563 141.924 C 191.563 141.028,189.851 140.869,188.337 141.626 M234.342 141.545 C 232.558 142.322,233.081 144.417,235.059 144.417 C 236.528 144.417,237.449 143.537,237.461 142.122 L 237.469 141.191 236.290 141.201 C 235.642 141.206,234.765 141.361,234.342 141.545 M189.454 154.338 C 189.454 154.859,189.309 154.978,188.511 155.108 C 187.258 155.311,187.066 155.551,187.015 156.980 L 186.973 158.189 188.151 158.264 C 190.029 158.385,189.978 159.801,188.095 159.801 L 186.861 159.801 186.793 163.834 L 186.725 167.866 185.918 167.944 L 185.112 168.022 185.112 163.912 L 185.112 159.801 183.995 159.801 C 182.920 159.801,182.878 159.774,182.878 159.057 C 182.878 158.344,182.924 158.313,183.961 158.313 L 185.044 158.313 185.174 156.688 C 185.362 154.344,186.175 153.569,188.337 153.670 C 189.347 153.717,189.454 153.781,189.454 154.338 M207.444 155.211 L 207.444 156.328 206.452 156.328 L 205.459 156.328 205.459 155.211 L 205.459 154.094 206.452 154.094 L 207.444 154.094 207.444 155.211 M201.688 154.750 C 202.171 154.880,202.248 155.042,202.184 155.802 C 202.129 156.457,202.009 156.673,201.737 156.601 C 197.358 155.443,195.713 158.149,199.613 160.097 C 205.658 163.117,203.169 169.294,196.464 167.911 C 195.616 167.737,195.533 167.647,195.533 166.904 C 195.533 165.805,195.626 165.758,196.973 166.169 C 201.140 167.439,202.384 163.743,198.431 161.838 C 192.779 159.112,195.540 153.104,201.688 154.750 M178.450 158.319 C 180.403 158.862,181.809 161.298,181.560 163.710 C 181.009 169.051,173.807 169.758,172.089 164.640 C 170.733 160.603,174.215 157.143,178.450 158.319 M217.875 158.942 C 218.907 159.930,219.132 161.032,219.052 164.694 L 218.983 167.866 218.114 167.866 L 217.246 167.866 217.122 164.392 C 216.985 160.557,216.785 159.931,215.618 159.674 C 213.401 159.187,212.582 160.457,212.413 164.640 L 212.283 167.866 211.414 167.866 L 210.546 167.866 210.479 163.089 L 210.411 158.313 211.409 158.313 C 212.265 158.313,212.407 158.388,212.407 158.847 C 212.407 159.343,212.439 159.353,212.846 158.985 C 214.134 157.819,216.681 157.798,217.875 158.942 M227.881 158.677 C 228.738 159.259,228.784 159.265,228.784 158.801 C 228.784 158.408,228.954 158.313,229.653 158.313 L 230.521 158.313 230.521 163.569 C 230.521 169.710,230.337 170.421,228.474 171.470 C 226.344 172.669,222.084 172.137,222.084 170.671 C 222.084 169.972,222.134 169.930,222.767 170.090 C 226.324 170.990,228.261 170.305,228.627 168.017 C 228.843 166.664,228.793 166.617,227.761 167.212 C 223.166 169.857,219.191 164.074,222.523 159.590 C 223.716 157.984,226.228 157.556,227.881 158.677 M239.206 158.499 C 240.702 159.247,240.959 160.128,240.884 164.268 L 240.819 167.866 240.118 167.946 C 239.599 168.006,239.385 167.905,239.295 167.558 C 239.178 167.111,239.117 167.118,237.954 167.693 C 235.593 168.861,233.086 167.783,232.827 165.489 C 232.587 163.358,234.373 162.035,237.488 162.035 L 239.260 162.035 239.099 161.352 C 238.698 159.645,236.332 159.026,234.584 160.171 C 234.004 160.552,233.995 160.545,233.995 159.710 C 233.995 158.242,237.200 157.497,239.206 158.499 M251.227 158.728 C 252.988 160.001,253.569 163.775,252.348 166.006 C 251.199 168.104,248.411 168.825,246.598 167.492 C 245.640 166.788,245.658 166.751,245.658 169.495 L 245.658 171.992 244.851 171.914 L 244.045 171.836 243.979 165.074 L 243.913 158.313 244.785 158.313 C 245.471 158.313,245.658 158.412,245.658 158.775 C 245.658 159.206,245.738 159.196,246.836 158.631 C 248.217 157.920,250.170 157.963,251.227 158.728 M261.328 158.319 C 263.248 158.852,264.662 161.262,264.463 163.661 C 263.941 169.958,254.756 169.359,254.759 163.027 C 254.761 159.437,257.719 157.317,261.328 158.319 M272.208 158.933 C 272.208 159.774,272.179 159.801,271.259 159.801 C 270.283 159.801,269.613 160.297,269.014 161.460 C 268.854 161.770,268.734 163.235,268.734 164.880 C 268.734 167.995,268.639 168.207,267.369 167.888 L 266.749 167.732 266.749 163.023 L 266.749 158.313 267.618 158.313 C 268.316 158.313,268.486 158.408,268.486 158.801 C 268.486 159.265,268.533 159.259,269.389 158.677 C 270.853 157.684,272.208 157.807,272.208 158.933 M279.752 158.410 C 280.895 158.888,281.837 160.219,282.131 161.773 C 282.469 163.554,282.528 163.524,278.769 163.524 C 275.113 163.524,275.052 163.554,275.794 164.988 C 276.587 166.522,278.844 167.077,280.583 166.166 L 281.390 165.744 281.390 166.610 C 281.390 167.685,280.881 167.999,278.949 168.116 C 275.490 168.326,273.598 166.526,273.598 163.027 C 273.598 159.218,276.490 157.048,279.752 158.410 M207.320 163.151 L 207.320 167.866 206.452 167.866 L 205.583 167.866 205.516 163.074 L 205.448 158.282 206.384 158.359 L 207.320 158.437 207.320 163.151 M175.375 159.928 C 173.189 161.158,173.363 165.319,175.645 166.402 C 178.812 167.904,181.184 162.683,178.457 160.214 C 177.772 159.595,176.224 159.451,175.375 159.928 M224.782 159.928 C 223.515 160.616,222.942 163.262,223.710 164.881 C 224.818 167.215,227.956 166.735,228.537 164.143 C 229.203 161.166,227.018 158.713,224.782 159.928 M247.395 159.856 C 245.929 160.611,245.311 163.109,246.140 164.934 C 247.379 167.663,250.543 166.981,251.007 163.885 C 251.449 160.941,249.502 158.770,247.395 159.856 M258.508 159.827 C 256.677 160.528,256.126 163.953,257.579 165.607 C 259.490 167.783,262.528 166.307,262.530 163.201 C 262.532 160.610,260.631 159.015,258.508 159.827 M277.047 159.788 C 274.643 160.772,275.102 162.035,277.865 162.035 L 280.328 162.035 280.209 161.412 C 279.961 160.112,278.317 159.268,277.047 159.788 M236.528 163.514 C 234.041 164.121,234.241 166.656,236.771 166.590 C 238.110 166.555,239.009 165.674,239.051 164.355 C 239.085 163.293,238.389 163.060,236.528 163.514 " stroke="none" fill="#fbfbfb" fill-rule="evenodd"></path><path id="path2" d="M129.879 65.203 C 125.932 66.610,123.032 70.124,122.625 73.994 C 122.460 75.573,122.433 75.620,121.092 76.711 C 111.325 84.654,120.019 99.801,131.669 95.140 L 133.251 94.507 134.868 95.154 C 146.697 99.886,155.421 83.585,144.945 76.325 C 144.033 75.692,143.981 75.584,143.857 74.045 C 143.350 67.731,135.940 63.043,129.879 65.203 M136.822 66.712 C 146.329 70.918,143.576 85.112,133.253 85.112 C 131.362 85.112,132.171 83.298,134.148 83.107 C 141.212 82.422,143.404 73.106,137.445 69.095 C 132.986 66.092,126.664 68.748,125.671 74.040 C 125.544 74.718,125.357 74.916,124.635 75.138 L 123.755 75.408 123.897 74.028 C 124.492 68.265,131.441 64.332,136.822 66.712 M73.449 66.885 C 72.016 67.065,70.760 67.220,70.658 67.229 C 70.555 67.238,70.471 73.010,70.471 80.056 L 70.471 92.866 71.170 92.726 C 75.818 91.797,82.182 91.867,86.116 92.891 L 88.734 93.573 91.203 92.909 C 95.052 91.874,101.589 91.794,106.249 92.726 L 106.948 92.866 106.948 80.083 L 106.948 67.301 106.141 67.152 C 100.724 66.149,94.726 66.322,90.537 67.602 L 88.643 68.180 87.188 67.689 C 83.598 66.477,78.881 66.201,73.449 66.885 M84.677 68.386 C 85.598 68.574,86.743 68.891,87.220 69.091 L 88.089 69.454 88.089 78.985 L 88.089 88.517 86.166 88.023 C 84.217 87.522,76.721 87.273,73.201 87.593 L 71.836 87.717 71.771 78.222 L 71.706 68.727 72.268 68.475 C 73.818 67.781,81.442 67.726,84.677 68.386 M100.993 67.993 C 102.971 68.129,104.843 68.298,105.152 68.369 L 105.713 68.497 105.648 78.107 C 105.584 87.558,105.575 87.716,105.087 87.642 C 101.357 87.080,93.936 87.371,90.633 88.208 L 89.330 88.538 89.330 79.017 C 89.330 70.156,89.361 69.480,89.770 69.261 C 90.509 68.865,93.199 68.237,95.098 68.016 C 96.088 67.901,97.010 67.793,97.146 67.777 C 97.283 67.760,99.014 67.858,100.993 67.993 M135.876 69.488 C 137.568 70.213,138.958 71.857,139.551 73.833 C 139.691 74.299,139.545 74.364,137.780 74.624 C 136.722 74.780,135.272 75.151,134.559 75.450 L 133.261 75.992 131.953 75.471 C 130.397 74.852,128.717 74.456,127.605 74.448 C 126.691 74.441,126.647 74.293,127.179 73.020 C 128.657 69.483,132.358 67.979,135.876 69.488 M130.637 76.347 C 133.646 77.397,137.062 80.926,135.750 81.628 C 134.926 82.069,134.587 81.923,133.651 80.722 C 129.045 74.810,119.980 77.884,119.980 85.360 C 119.980 90.653,124.423 94.059,129.683 92.797 C 130.890 92.507,131.062 92.519,131.513 92.927 C 132.207 93.555,132.141 93.767,131.120 94.194 C 125.475 96.552,118.959 92.800,118.133 86.715 C 117.173 79.639,123.954 74.016,130.637 76.347 M139.450 75.928 C 140.464 76.471,139.720 77.523,138.196 77.700 C 137.455 77.787,136.555 77.974,136.196 78.117 C 135.594 78.357,134.491 77.655,134.491 77.033 C 134.491 76.688,136.679 76.016,138.788 75.712 C 138.899 75.696,139.197 75.793,139.450 75.928 M145.518 78.171 C 150.400 82.788,148.767 91.402,142.556 93.795 C 135.518 96.507,128.420 90.880,129.569 83.499 C 130.016 80.624,131.102 79.131,132.053 80.081 L 132.550 80.579 131.972 81.667 C 129.428 86.450,133.372 92.652,138.958 92.654 C 145.797 92.657,149.329 83.860,144.272 79.419 C 143.496 78.738,143.420 78.563,143.565 77.790 C 143.778 76.656,143.952 76.690,145.518 78.171 M129.336 79.012 C 129.954 79.150,129.987 79.215,129.730 79.780 C 129.369 80.572,128.949 80.561,128.306 79.743 C 127.677 78.944,127.649 78.588,128.226 78.744 C 128.465 78.809,128.964 78.930,129.336 79.012 M138.710 78.808 C 138.710 79.151,137.657 80.397,137.368 80.397 C 136.624 80.397,136.444 79.172,137.166 79.014 C 137.537 78.932,137.953 78.828,138.089 78.782 C 138.504 78.644,138.710 78.652,138.710 78.808 M126.761 79.715 C 127.036 80.158,127.601 80.847,128.017 81.245 C 128.739 81.935,128.840 82.591,128.355 83.449 C 128.084 83.929,125.963 81.923,125.061 80.333 L 124.532 79.401 125.107 79.170 C 126.035 78.798,126.235 78.864,126.761 79.715 M144.788 82.473 C 147.099 87.111,143.062 92.483,137.853 91.702 C 136.521 91.502,136.474 91.297,137.355 89.557 C 137.739 88.800,138.045 87.680,138.137 86.699 L 138.288 85.086 139.740 83.946 C 140.538 83.318,141.594 82.199,142.086 81.458 L 142.980 80.111 143.573 80.668 C 143.899 80.975,144.446 81.787,144.788 82.473 M124.566 81.698 C 125.043 82.403,126.076 83.468,126.861 84.064 C 128.206 85.085,128.288 85.207,128.288 86.207 C 128.288 87.277,129.086 89.979,129.534 90.427 C 130.914 91.807,127.016 92.325,124.605 91.082 C 120.874 89.159,119.876 83.985,122.652 80.955 C 123.374 80.167,123.585 80.249,124.566 81.698 M136.889 86.896 C 136.741 88.151,135.633 90.819,135.261 90.819 C 135.158 90.819,134.823 90.552,134.516 90.225 L 133.958 89.631 134.452 88.662 C 134.724 88.130,135.023 87.287,135.116 86.789 C 135.239 86.134,135.433 85.855,135.819 85.780 C 137.054 85.538,137.050 85.535,136.889 86.896 M133.995 86.315 C 133.995 86.766,133.440 88.089,133.251 88.089 C 133.061 88.089,132.506 86.766,132.506 86.315 C 132.506 86.199,132.841 86.104,133.251 86.104 C 133.660 86.104,133.995 86.199,133.995 86.315 M118.416 108.644 C 113.866 110.262,113.980 115.813,118.600 117.680 C 122.141 119.111,132.192 118.333,139.173 116.087 C 145.824 113.948,149.376 114.620,149.379 118.019 C 149.382 121.385,141.940 123.405,132.938 122.482 C 131.492 122.334,128.997 122.365,125.493 122.576 C 119.054 122.965,113.595 122.595,109.169 121.472 C 108.580 121.322,108.507 121.405,108.103 122.685 C 107.865 123.441,107.117 125.123,106.441 126.424 C 105.487 128.257,105.211 129.045,105.211 129.930 C 105.211 131.218,104.632 131.312,103.174 130.261 C 102.221 129.575,102.233 129.553,102.233 131.948 C 102.233 133.828,102.136 134.323,101.513 135.640 C 100.582 137.608,100.471 137.652,99.407 136.474 C 98.289 135.236,98.357 135.211,98.201 136.929 C 98.045 138.650,97.465 139.862,95.812 141.922 C 94.680 143.333,94.530 143.683,93.913 146.355 C 93.096 149.891,92.223 152.754,91.383 154.653 L 90.751 156.079 88.072 156.079 C 85.135 156.079,84.119 156.320,84.119 157.016 C 84.119 157.265,83.985 157.603,83.821 157.767 C 83.590 157.998,83.680 158.065,84.225 158.065 C 84.903 158.065,84.922 158.098,84.771 159.040 L 84.615 160.015 85.356 159.802 C 86.218 159.555,86.468 159.802,86.247 160.684 C 86.034 161.531,87.032 161.499,90.895 160.537 C 94.304 159.689,94.842 159.309,95.319 157.412 C 95.475 156.795,96.665 154.540,97.966 152.401 C 99.266 150.262,101.268 146.948,102.414 145.037 L 104.499 141.563 104.354 140.029 L 104.208 138.495 106.384 137.827 C 107.581 137.460,109.454 136.910,110.546 136.606 C 116.636 134.908,122.829 133.014,122.829 132.850 C 122.829 132.784,122.653 132.390,122.439 131.975 C 121.762 130.666,122.167 130.371,123.413 131.266 C 124.564 132.093,124.743 132.316,127.734 136.652 C 128.789 138.181,131.024 140.945,132.699 142.793 L 135.746 146.154 135.358 147.648 C 134.681 150.263,132.531 155.634,132.040 155.937 C 131.954 155.990,130.645 156.096,129.132 156.173 C 125.927 156.337,125.558 156.440,125.558 157.173 C 125.558 157.472,125.419 157.866,125.248 158.047 C 124.993 158.318,125.055 158.349,125.594 158.222 C 126.373 158.039,126.697 158.569,126.282 159.344 C 125.929 160.003,126.055 160.086,126.998 159.816 C 127.909 159.554,128.159 159.787,127.934 160.684 C 127.821 161.135,127.882 161.290,128.172 161.290 C 128.585 161.290,133.805 159.964,134.565 159.666 C 135.076 159.466,135.770 158.167,137.375 154.410 C 138.743 151.208,140.210 148.247,141.353 146.383 C 142.139 145.101,142.269 144.169,141.662 144.169 C 141.157 144.169,139.338 142.227,138.872 141.191 C 138.437 140.225,138.344 139.307,138.181 134.367 C 138.053 130.504,137.868 128.219,137.609 127.295 C 136.985 125.069,136.850 125.200,140.261 124.723 C 149.037 123.494,152.414 120.903,151.121 116.392 C 150.064 112.708,146.044 112.251,137.841 114.885 C 126.869 118.408,116.605 117.629,116.632 113.275 C 116.650 110.214,117.913 109.581,124.194 109.484 C 129.805 109.397,130.062 109.360,129.440 108.738 C 128.763 108.061,120.258 107.989,118.416 108.644 M90.819 109.117 C 89.853 109.569,88.991 109.768,87.867 109.796 C 85.441 109.857,84.617 111.238,86.016 112.901 L 86.673 113.681 86.140 114.629 C 85.429 115.894,85.374 115.735,87.345 118.114 C 89.043 120.165,89.082 120.242,89.082 121.615 C 89.082 122.914,89.143 123.065,89.912 123.651 C 90.510 124.107,90.804 124.582,90.967 125.355 C 91.225 126.580,92.013 127.009,94.045 127.032 C 96.509 127.060,97.509 126.296,97.517 124.380 C 97.518 124.209,97.614 124.069,97.731 124.069 C 98.509 124.069,99.256 122.807,99.256 121.490 C 99.256 120.050,99.198 120.143,102.451 116.302 C 102.794 115.898,102.773 115.753,102.231 114.761 L 101.633 113.666 102.231 113.030 C 103.669 111.499,102.784 109.773,100.603 109.850 C 99.557 109.886,98.861 109.728,97.612 109.167 C 95.605 108.267,95.680 108.265,94.814 109.234 L 94.102 110.031 93.431 109.234 C 92.639 108.293,92.583 108.290,90.819 109.117 M72.084 110.174 C 72.000 110.310,71.603 110.422,71.201 110.422 C 70.444 110.422,70.243 110.838,70.753 111.348 C 71.318 111.914,70.785 112.475,69.848 112.299 C 68.768 112.096,68.613 112.852,69.603 113.501 C 69.944 113.724,70.223 114.126,70.223 114.393 C 70.223 114.704,70.000 114.935,69.603 115.035 C 68.586 115.290,68.847 116.052,70.464 117.546 C 71.278 118.299,72.019 119.154,72.109 119.445 C 72.200 119.737,72.636 120.533,73.080 121.216 C 73.829 122.370,74.841 124.072,78.540 130.397 C 82.265 136.765,82.095 136.627,85.001 135.647 L 86.725 135.066 86.638 132.483 C 86.537 129.471,86.588 129.591,85.689 130.239 C 84.215 131.303,83.623 131.223,83.623 129.958 C 83.623 127.978,80.987 123.146,79.071 121.612 C 75.842 119.027,75.170 117.871,73.796 112.531 C 73.250 110.411,72.541 109.435,72.084 110.174 M92.243 114.392 C 92.407 115.347,91.896 115.481,90.719 114.792 C 89.271 113.943,89.288 113.853,90.879 113.945 C 91.799 113.998,92.198 114.129,92.243 114.392 M99.004 114.082 C 99.002 114.184,98.430 114.583,97.733 114.967 L 96.467 115.666 96.626 116.952 C 96.713 117.659,96.845 118.685,96.918 119.231 C 97.050 120.208,97.033 120.233,95.858 120.844 C 93.719 121.956,94.263 124.069,96.687 124.069 C 97.210 124.069,97.301 124.138,97.078 124.361 C 96.855 124.584,96.509 124.581,95.602 124.350 C 94.065 123.957,94.116 123.957,92.743 124.340 C 91.825 124.596,91.500 124.602,91.267 124.369 C 91.033 124.135,91.118 124.069,91.650 124.069 C 93.899 124.069,94.607 122.144,92.813 120.903 C 91.443 119.956,91.541 119.851,93.797 119.851 L 95.782 119.851 95.782 116.873 L 95.782 113.896 97.395 113.896 C 98.282 113.896,99.006 113.980,99.004 114.082 M120.724 135.517 C 119.494 135.805,119.224 136.059,119.717 136.468 C 120.592 137.194,120.169 137.436,118.273 137.293 C 115.583 137.089,115.718 137.589,119.659 142.418 C 121.668 144.880,121.675 144.340,119.568 149.410 L 118.060 153.039 116.784 153.192 C 116.083 153.277,114.720 153.347,113.757 153.348 C 111.831 153.350,111.311 153.602,111.068 154.650 C 110.929 155.248,110.978 155.323,111.472 155.271 C 111.960 155.219,112.030 155.318,111.998 156.017 C 111.965 156.757,112.024 156.824,112.709 156.824 C 113.404 156.824,113.448 156.877,113.342 157.600 L 113.228 158.375 114.617 158.220 C 116.459 158.014,120.062 156.934,120.633 156.417 C 120.884 156.191,122.050 154.096,123.224 151.762 C 124.399 149.428,125.684 147.106,126.079 146.603 C 126.907 145.549,126.953 145.187,126.397 144.112 C 125.869 143.090,126.069 141.401,126.952 139.434 L 127.623 137.938 126.289 136.587 L 124.955 135.236 123.334 135.261 C 122.442 135.274,121.267 135.390,120.724 135.517 " stroke="none" fill="#e97b07" fill-rule="evenodd"></path></g></svg>